<mxfile host="app.diagrams.net" modified="2023-11-17T08:50:15.386Z" agent="Mozilla/5.0 (Macintosh; Intel Mac OS X 10_15_7) AppleWebKit/605.1.15 (KHTML, like Gecko) Version/17.1 Safari/605.1.15" etag="MThzOQGXWKLz9YZOORpN" version="22.1.2" type="github">
  <diagram name="第 1 页" id="cwiQXqDM4dJ7onwpeurd">
    <mxGraphModel dx="2603" dy="947" grid="1" gridSize="10" guides="1" tooltips="1" connect="1" arrows="1" fold="1" page="1" pageScale="1" pageWidth="1169" pageHeight="827" math="0" shadow="0">
      <root>
        <mxCell id="0" />
        <mxCell id="1" parent="0" />
        <mxCell id="NmOJf7ED6O6_MyOFakdR-4" value="&lt;font style=&quot;font-size: 15px;&quot; face=&quot;Times New Roman&quot;&gt;开始&lt;/font&gt;" style="rounded=1;whiteSpace=wrap;html=1;" parent="1" vertex="1">
          <mxGeometry x="340" y="100" width="120" height="60" as="geometry" />
        </mxCell>
        <mxCell id="ECHTM2pUaqYe5BrJFtDh-3" value="" style="edgeStyle=orthogonalEdgeStyle;rounded=0;orthogonalLoop=1;jettySize=auto;html=1;" parent="1" source="NmOJf7ED6O6_MyOFakdR-4" target="NmOJf7ED6O6_MyOFakdR-5" edge="1">
          <mxGeometry relative="1" as="geometry" />
        </mxCell>
        <mxCell id="NmOJf7ED6O6_MyOFakdR-5" value="&lt;font face=&quot;Times New Roman&quot; style=&quot;font-size: 15px;&quot;&gt;接收到钉钉大客户会员申请&lt;/font&gt;" style="rounded=0;whiteSpace=wrap;html=1;" parent="1" vertex="1">
          <mxGeometry x="340" y="200" width="120" height="80" as="geometry" />
        </mxCell>
        <mxCell id="ECHTM2pUaqYe5BrJFtDh-2" value="" style="edgeStyle=orthogonalEdgeStyle;rounded=0;orthogonalLoop=1;jettySize=auto;html=1;" parent="1" source="NmOJf7ED6O6_MyOFakdR-5" target="ECHTM2pUaqYe5BrJFtDh-1" edge="1">
          <mxGeometry relative="1" as="geometry" />
        </mxCell>
        <mxCell id="ECHTM2pUaqYe5BrJFtDh-1" value="&lt;font style=&quot;font-size: 14px;&quot; face=&quot;Times New Roman&quot;&gt;本申请人是否有上一个大客户会员申请&lt;/font&gt;" style="rhombus;html=1;whiteSpace=wrap;" parent="1" vertex="1">
          <mxGeometry x="280" y="320" width="240" height="80" as="geometry" />
        </mxCell>
        <mxCell id="ECHTM2pUaqYe5BrJFtDh-4" value="" style="strokeWidth=2;html=1;shape=mxgraph.flowchart.annotation_2;align=left;labelPosition=right;pointerEvents=1;direction=south;movable=1;resizable=1;rotatable=1;deletable=1;editable=1;locked=0;connectable=1;" parent="1" vertex="1">
          <mxGeometry x="180" y="400" width="440" height="80" as="geometry" />
        </mxCell>
        <mxCell id="ECHTM2pUaqYe5BrJFtDh-5" value="有" style="text;strokeColor=none;align=center;fillColor=none;html=1;verticalAlign=middle;whiteSpace=wrap;rounded=0;movable=1;resizable=1;rotatable=1;deletable=1;editable=1;locked=0;connectable=1;" parent="1" vertex="1">
          <mxGeometry x="140" y="410" width="60" height="30" as="geometry" />
        </mxCell>
        <mxCell id="ECHTM2pUaqYe5BrJFtDh-6" value="否" style="text;strokeColor=none;align=center;fillColor=none;html=1;verticalAlign=middle;whiteSpace=wrap;rounded=0;movable=1;resizable=1;rotatable=1;deletable=1;editable=1;locked=0;connectable=1;" parent="1" vertex="1">
          <mxGeometry x="600" y="410" width="60" height="30" as="geometry" />
        </mxCell>
        <mxCell id="ECHTM2pUaqYe5BrJFtDh-7" value="上一个申请是对公还是对私" style="rhombus;whiteSpace=wrap;html=1;movable=1;resizable=1;rotatable=1;deletable=1;editable=1;locked=0;connectable=1;" parent="1" vertex="1">
          <mxGeometry x="100" y="480" width="160" height="80" as="geometry" />
        </mxCell>
        <mxCell id="ECHTM2pUaqYe5BrJFtDh-8" value="对公还是对私" style="rhombus;whiteSpace=wrap;html=1;movable=1;resizable=1;rotatable=1;deletable=1;editable=1;locked=0;connectable=1;" parent="1" vertex="1">
          <mxGeometry x="540" y="480" width="160" height="80" as="geometry" />
        </mxCell>
        <mxCell id="ECHTM2pUaqYe5BrJFtDh-9" value="" style="strokeWidth=2;html=1;shape=mxgraph.flowchart.annotation_2;align=left;labelPosition=right;pointerEvents=1;direction=south;movable=1;resizable=1;rotatable=1;deletable=1;editable=1;locked=0;connectable=1;" parent="1" vertex="1">
          <mxGeometry x="80" y="560" width="200" height="80" as="geometry" />
        </mxCell>
        <mxCell id="ECHTM2pUaqYe5BrJFtDh-10" value="对公" style="text;strokeColor=none;align=center;fillColor=none;html=1;verticalAlign=middle;whiteSpace=wrap;rounded=0;movable=1;resizable=1;rotatable=1;deletable=1;editable=1;locked=0;connectable=1;" parent="1" vertex="1">
          <mxGeometry x="50" y="570" width="60" height="30" as="geometry" />
        </mxCell>
        <mxCell id="ECHTM2pUaqYe5BrJFtDh-11" value="对私" style="text;strokeColor=none;align=center;fillColor=none;html=1;verticalAlign=middle;whiteSpace=wrap;rounded=0;movable=1;resizable=1;rotatable=1;deletable=1;editable=1;locked=0;connectable=1;" parent="1" vertex="1">
          <mxGeometry x="250" y="570" width="60" height="30" as="geometry" />
        </mxCell>
        <mxCell id="ECHTM2pUaqYe5BrJFtDh-12" value="是否完全回款" style="rhombus;whiteSpace=wrap;html=1;movable=1;resizable=1;rotatable=1;deletable=1;editable=1;locked=0;connectable=1;" parent="1" vertex="1">
          <mxGeometry x="200" y="640" width="160" height="80" as="geometry" />
        </mxCell>
        <mxCell id="ECHTM2pUaqYe5BrJFtDh-14" value="否" style="text;strokeColor=none;align=center;fillColor=none;html=1;verticalAlign=middle;whiteSpace=wrap;rounded=0;movable=1;resizable=1;rotatable=1;deletable=1;editable=1;locked=0;connectable=1;" parent="1" vertex="1">
          <mxGeometry x="270" y="720" width="60" height="30" as="geometry" />
        </mxCell>
        <mxCell id="ECHTM2pUaqYe5BrJFtDh-15" value="是" style="text;strokeColor=none;align=center;fillColor=none;html=1;verticalAlign=middle;whiteSpace=wrap;rounded=0;movable=1;resizable=1;rotatable=1;deletable=1;editable=1;locked=0;connectable=1;" parent="1" vertex="1">
          <mxGeometry x="384" y="650" width="60" height="30" as="geometry" />
        </mxCell>
        <mxCell id="ECHTM2pUaqYe5BrJFtDh-16" value="" style="shape=partialRectangle;whiteSpace=wrap;html=1;top=0;left=0;fillColor=none;" parent="1" vertex="1">
          <mxGeometry x="360" y="520" width="120" height="160" as="geometry" />
        </mxCell>
        <mxCell id="ECHTM2pUaqYe5BrJFtDh-18" value="" style="endArrow=classic;html=1;rounded=0;entryX=0;entryY=0.5;entryDx=0;entryDy=0;" parent="1" target="ECHTM2pUaqYe5BrJFtDh-8" edge="1">
          <mxGeometry width="50" height="50" relative="1" as="geometry">
            <mxPoint x="480" y="520" as="sourcePoint" />
            <mxPoint x="530" y="470" as="targetPoint" />
          </mxGeometry>
        </mxCell>
        <mxCell id="ECHTM2pUaqYe5BrJFtDh-20" value="" style="endArrow=classic;html=1;rounded=0;" parent="1" edge="1">
          <mxGeometry width="50" height="50" relative="1" as="geometry">
            <mxPoint x="280" y="720" as="sourcePoint" />
            <mxPoint x="280" y="760" as="targetPoint" />
          </mxGeometry>
        </mxCell>
        <mxCell id="ECHTM2pUaqYe5BrJFtDh-21" value="调用钉钉驳回申请，理由：上一笔对私申请未完全回款，无法发起新申请。" style="rounded=0;whiteSpace=wrap;html=1;" parent="1" vertex="1">
          <mxGeometry x="220" y="760" width="120" height="60" as="geometry" />
        </mxCell>
        <mxCell id="ECHTM2pUaqYe5BrJFtDh-22" value="是否超过五个工作日" style="rhombus;whiteSpace=wrap;html=1;movable=1;resizable=1;rotatable=1;deletable=1;editable=1;locked=0;connectable=1;" parent="1" vertex="1">
          <mxGeometry y="640" width="160" height="80" as="geometry" />
        </mxCell>
        <mxCell id="ECHTM2pUaqYe5BrJFtDh-25" value="是" style="text;html=1;align=center;verticalAlign=middle;resizable=0;points=[];autosize=1;strokeColor=none;fillColor=none;" parent="1" vertex="1">
          <mxGeometry x="-45" y="650" width="40" height="30" as="geometry" />
        </mxCell>
        <mxCell id="ECHTM2pUaqYe5BrJFtDh-26" value="申请中必带回款日期。对公附件为合同（申请时可能有可能没有）。" style="text;html=1;align=center;verticalAlign=middle;resizable=0;points=[];autosize=1;strokeColor=none;fillColor=none;" parent="1" vertex="1">
          <mxGeometry x="470" y="225" width="380" height="30" as="geometry" />
        </mxCell>
        <mxCell id="ECHTM2pUaqYe5BrJFtDh-27" value="" style="endArrow=none;html=1;rounded=0;" parent="1" edge="1">
          <mxGeometry width="50" height="50" relative="1" as="geometry">
            <mxPoint x="80" y="840" as="sourcePoint" />
            <mxPoint x="80" y="720" as="targetPoint" />
          </mxGeometry>
        </mxCell>
        <mxCell id="ECHTM2pUaqYe5BrJFtDh-28" value="" style="endArrow=none;html=1;rounded=0;" parent="1" edge="1">
          <mxGeometry width="50" height="50" relative="1" as="geometry">
            <mxPoint x="80" y="840" as="sourcePoint" />
            <mxPoint x="480" y="840" as="targetPoint" />
          </mxGeometry>
        </mxCell>
        <mxCell id="ECHTM2pUaqYe5BrJFtDh-30" value="否" style="text;strokeColor=none;align=center;fillColor=none;html=1;verticalAlign=middle;whiteSpace=wrap;rounded=0;movable=1;resizable=1;rotatable=1;deletable=1;editable=1;locked=0;connectable=1;" parent="1" vertex="1">
          <mxGeometry x="60" y="730" width="60" height="30" as="geometry" />
        </mxCell>
        <mxCell id="ECHTM2pUaqYe5BrJFtDh-31" value="" style="shape=partialRectangle;whiteSpace=wrap;html=1;bottom=0;right=0;fillColor=none;" parent="1" vertex="1">
          <mxGeometry x="-40" y="680" width="40" height="40" as="geometry" />
        </mxCell>
        <mxCell id="ECHTM2pUaqYe5BrJFtDh-32" value="是否上传合同" style="rhombus;whiteSpace=wrap;html=1;movable=1;resizable=1;rotatable=1;deletable=1;editable=1;locked=0;connectable=1;" parent="1" vertex="1">
          <mxGeometry x="-120" y="720" width="160" height="80" as="geometry" />
        </mxCell>
        <mxCell id="ECHTM2pUaqYe5BrJFtDh-38" value="是" style="text;html=1;align=center;verticalAlign=middle;resizable=0;points=[];autosize=1;strokeColor=none;fillColor=none;" parent="1" vertex="1">
          <mxGeometry x="-45" y="820" width="40" height="30" as="geometry" />
        </mxCell>
        <mxCell id="ECHTM2pUaqYe5BrJFtDh-39" value="否" style="text;strokeColor=none;align=center;fillColor=none;html=1;verticalAlign=middle;whiteSpace=wrap;rounded=0;movable=1;resizable=1;rotatable=1;deletable=1;editable=1;locked=0;connectable=1;" parent="1" vertex="1">
          <mxGeometry x="-170" y="730" width="60" height="30" as="geometry" />
        </mxCell>
        <mxCell id="ECHTM2pUaqYe5BrJFtDh-42" value="" style="endArrow=none;html=1;rounded=0;" parent="1" edge="1">
          <mxGeometry width="50" height="50" relative="1" as="geometry">
            <mxPoint x="-160" y="760" as="sourcePoint" />
            <mxPoint x="-120" y="760" as="targetPoint" />
          </mxGeometry>
        </mxCell>
        <mxCell id="ECHTM2pUaqYe5BrJFtDh-43" value="调用钉钉驳回申请，理由：上一笔对公申请未上传合同，请上传后再发起新申请。" style="rounded=0;whiteSpace=wrap;html=1;" parent="1" vertex="1">
          <mxGeometry x="-220" y="800" width="120" height="60" as="geometry" />
        </mxCell>
        <mxCell id="ECHTM2pUaqYe5BrJFtDh-44" value="是否到回款日期" style="rhombus;whiteSpace=wrap;html=1;movable=1;resizable=1;rotatable=1;deletable=1;editable=1;locked=0;connectable=1;" parent="1" vertex="1">
          <mxGeometry x="-120" y="880" width="160" height="80" as="geometry" />
        </mxCell>
        <mxCell id="ECHTM2pUaqYe5BrJFtDh-45" value="" style="endArrow=none;html=1;rounded=0;" parent="1" edge="1">
          <mxGeometry width="50" height="50" relative="1" as="geometry">
            <mxPoint x="40" y="919.5" as="sourcePoint" />
            <mxPoint x="480" y="920" as="targetPoint" />
          </mxGeometry>
        </mxCell>
        <mxCell id="ECHTM2pUaqYe5BrJFtDh-46" value="否" style="text;strokeColor=none;align=center;fillColor=none;html=1;verticalAlign=middle;whiteSpace=wrap;rounded=0;movable=1;resizable=1;rotatable=1;deletable=1;editable=1;locked=0;connectable=1;" parent="1" vertex="1">
          <mxGeometry x="50" y="890" width="60" height="30" as="geometry" />
        </mxCell>
        <mxCell id="ECHTM2pUaqYe5BrJFtDh-48" value="是" style="text;html=1;align=center;verticalAlign=middle;resizable=0;points=[];autosize=1;strokeColor=none;fillColor=none;" parent="1" vertex="1">
          <mxGeometry x="-45" y="960" width="40" height="30" as="geometry" />
        </mxCell>
        <mxCell id="ECHTM2pUaqYe5BrJFtDh-54" style="edgeStyle=orthogonalEdgeStyle;rounded=0;orthogonalLoop=1;jettySize=auto;html=1;exitX=1;exitY=0.5;exitDx=0;exitDy=0;" parent="1" source="ECHTM2pUaqYe5BrJFtDh-49" edge="1">
          <mxGeometry relative="1" as="geometry">
            <mxPoint x="480" y="920" as="targetPoint" />
          </mxGeometry>
        </mxCell>
        <mxCell id="ECHTM2pUaqYe5BrJFtDh-49" value="是否已回款" style="rhombus;whiteSpace=wrap;html=1;movable=1;resizable=1;rotatable=1;deletable=1;editable=1;locked=0;connectable=1;" parent="1" vertex="1">
          <mxGeometry x="-120" y="1000" width="160" height="80" as="geometry" />
        </mxCell>
        <mxCell id="ECHTM2pUaqYe5BrJFtDh-50" value="" style="entryX=0.5;entryY=0;entryDx=0;entryDy=0;" parent="1" target="ECHTM2pUaqYe5BrJFtDh-44" edge="1">
          <mxGeometry relative="1" as="geometry">
            <mxPoint x="-40" y="800" as="sourcePoint" />
            <mxPoint x="-40" y="840" as="targetPoint" />
          </mxGeometry>
        </mxCell>
        <mxCell id="ECHTM2pUaqYe5BrJFtDh-52" value="" style="" parent="1" edge="1">
          <mxGeometry relative="1" as="geometry">
            <mxPoint x="-40" y="960" as="sourcePoint" />
            <mxPoint x="-40" y="1000" as="targetPoint" />
          </mxGeometry>
        </mxCell>
        <mxCell id="ECHTM2pUaqYe5BrJFtDh-53" value="" style="" parent="1" edge="1">
          <mxGeometry relative="1" as="geometry">
            <mxPoint x="-160.5" y="760" as="sourcePoint" />
            <mxPoint x="-160" y="800" as="targetPoint" />
          </mxGeometry>
        </mxCell>
        <mxCell id="ECHTM2pUaqYe5BrJFtDh-55" value="是" style="text;html=1;align=center;verticalAlign=middle;resizable=0;points=[];autosize=1;strokeColor=none;fillColor=none;" parent="1" vertex="1">
          <mxGeometry x="60" y="1010" width="40" height="30" as="geometry" />
        </mxCell>
        <mxCell id="ECHTM2pUaqYe5BrJFtDh-56" value="否" style="text;html=1;align=center;verticalAlign=middle;resizable=0;points=[];autosize=1;strokeColor=none;fillColor=none;" parent="1" vertex="1">
          <mxGeometry x="-45" y="1080" width="40" height="30" as="geometry" />
        </mxCell>
        <mxCell id="ECHTM2pUaqYe5BrJFtDh-57" value="" style="" parent="1" edge="1">
          <mxGeometry relative="1" as="geometry">
            <mxPoint x="-40" y="1080" as="sourcePoint" />
            <mxPoint x="-40" y="1120" as="targetPoint" />
          </mxGeometry>
        </mxCell>
        <mxCell id="ECHTM2pUaqYe5BrJFtDh-58" value="调用钉钉驳回申请，理由：上一笔对公申请到回款日期未回款，无法发起新申请。" style="rounded=0;whiteSpace=wrap;html=1;" parent="1" vertex="1">
          <mxGeometry x="-100" y="1120" width="120" height="80" as="geometry" />
        </mxCell>
        <mxCell id="ECHTM2pUaqYe5BrJFtDh-59" value="" style="endArrow=classic;html=1;rounded=0;" parent="1" edge="1">
          <mxGeometry width="50" height="50" relative="1" as="geometry">
            <mxPoint x="480" y="920" as="sourcePoint" />
            <mxPoint x="480" y="840" as="targetPoint" />
          </mxGeometry>
        </mxCell>
        <mxCell id="ECHTM2pUaqYe5BrJFtDh-61" value="" style="endArrow=classic;html=1;rounded=0;" parent="1" edge="1">
          <mxGeometry width="50" height="50" relative="1" as="geometry">
            <mxPoint x="480" y="840" as="sourcePoint" />
            <mxPoint x="480" y="680" as="targetPoint" />
          </mxGeometry>
        </mxCell>
        <mxCell id="ECHTM2pUaqYe5BrJFtDh-63" value="开票财务可以修正回款日期" style="text;html=1;align=center;verticalAlign=middle;resizable=0;points=[];autosize=1;strokeColor=none;fillColor=none;" parent="1" vertex="1">
          <mxGeometry x="-290" y="905" width="170" height="30" as="geometry" />
        </mxCell>
        <mxCell id="ECHTM2pUaqYe5BrJFtDh-64" value="&lt;font style=&quot;font-size: 16px;&quot;&gt;大客户会员申请流程&lt;/font&gt;" style="rounded=0;whiteSpace=wrap;html=1;" parent="1" vertex="1">
          <mxGeometry x="320" y="20" width="160" height="60" as="geometry" />
        </mxCell>
        <mxCell id="ECHTM2pUaqYe5BrJFtDh-66" value="" style="" parent="1" edge="1">
          <mxGeometry relative="1" as="geometry">
            <mxPoint x="620" y="560" as="sourcePoint" />
            <mxPoint x="620" y="600" as="targetPoint" />
          </mxGeometry>
        </mxCell>
        <mxCell id="ECHTM2pUaqYe5BrJFtDh-67" value="对公" style="text;strokeColor=none;align=center;fillColor=none;html=1;verticalAlign=middle;whiteSpace=wrap;rounded=0;movable=1;resizable=1;rotatable=1;deletable=1;editable=1;locked=0;connectable=1;" parent="1" vertex="1">
          <mxGeometry x="570" y="560" width="60" height="30" as="geometry" />
        </mxCell>
        <mxCell id="ECHTM2pUaqYe5BrJFtDh-68" value="对私" style="text;strokeColor=none;align=center;fillColor=none;html=1;verticalAlign=middle;whiteSpace=wrap;rounded=0;movable=1;resizable=1;rotatable=1;deletable=1;editable=1;locked=0;connectable=1;" parent="1" vertex="1">
          <mxGeometry x="690" y="490" width="60" height="30" as="geometry" />
        </mxCell>
        <mxCell id="ECHTM2pUaqYe5BrJFtDh-69" value="" style="endArrow=classic;html=1;rounded=0;" parent="1" edge="1">
          <mxGeometry width="50" height="50" relative="1" as="geometry">
            <mxPoint x="700" y="520" as="sourcePoint" />
            <mxPoint x="760" y="520" as="targetPoint" />
          </mxGeometry>
        </mxCell>
        <mxCell id="ECHTM2pUaqYe5BrJFtDh-74" style="edgeStyle=orthogonalEdgeStyle;rounded=0;orthogonalLoop=1;jettySize=auto;html=1;exitX=0.5;exitY=1;exitDx=0;exitDy=0;" parent="1" source="ECHTM2pUaqYe5BrJFtDh-70" edge="1">
          <mxGeometry relative="1" as="geometry">
            <mxPoint x="620" y="700" as="targetPoint" />
          </mxGeometry>
        </mxCell>
        <mxCell id="ECHTM2pUaqYe5BrJFtDh-70" value="创建对公申请记录" style="rounded=0;whiteSpace=wrap;html=1;" parent="1" vertex="1">
          <mxGeometry x="560" y="600" width="120" height="60" as="geometry" />
        </mxCell>
        <mxCell id="ECHTM2pUaqYe5BrJFtDh-72" value="创建对私申请记录" style="rounded=0;whiteSpace=wrap;html=1;" parent="1" vertex="1">
          <mxGeometry x="760" y="490" width="120" height="60" as="geometry" />
        </mxCell>
        <mxCell id="ECHTM2pUaqYe5BrJFtDh-75" value="结束" style="rounded=1;whiteSpace=wrap;html=1;" parent="1" vertex="1">
          <mxGeometry x="560" y="700" width="120" height="60" as="geometry" />
        </mxCell>
        <mxCell id="ECHTM2pUaqYe5BrJFtDh-77" value="结束" style="rounded=1;whiteSpace=wrap;html=1;" parent="1" vertex="1">
          <mxGeometry x="767" y="590" width="120" height="60" as="geometry" />
        </mxCell>
        <mxCell id="ECHTM2pUaqYe5BrJFtDh-78" style="edgeStyle=orthogonalEdgeStyle;rounded=0;orthogonalLoop=1;jettySize=auto;html=1;exitX=0.5;exitY=1;exitDx=0;exitDy=0;" parent="1" edge="1">
          <mxGeometry relative="1" as="geometry">
            <mxPoint x="827" y="590" as="targetPoint" />
            <mxPoint x="827" y="550" as="sourcePoint" />
          </mxGeometry>
        </mxCell>
        <mxCell id="5aaM2zscBui7bIKNS3Ns-1" value="&lt;font style=&quot;font-size: 15px;&quot; face=&quot;Times New Roman&quot;&gt;开始&lt;/font&gt;" style="rounded=1;whiteSpace=wrap;html=1;" vertex="1" parent="1">
          <mxGeometry x="1260" y="120" width="120" height="60" as="geometry" />
        </mxCell>
        <mxCell id="5aaM2zscBui7bIKNS3Ns-2" value="" style="edgeStyle=orthogonalEdgeStyle;rounded=0;orthogonalLoop=1;jettySize=auto;html=1;" edge="1" parent="1" source="5aaM2zscBui7bIKNS3Ns-1" target="5aaM2zscBui7bIKNS3Ns-3">
          <mxGeometry relative="1" as="geometry" />
        </mxCell>
        <mxCell id="5aaM2zscBui7bIKNS3Ns-3" value="&lt;font face=&quot;Times New Roman&quot;&gt;&lt;span style=&quot;font-size: 15px;&quot;&gt;业务员-选择申请（支持单选/多选）-申请开票&lt;/span&gt;&lt;/font&gt;" style="rounded=0;whiteSpace=wrap;html=1;" vertex="1" parent="1">
          <mxGeometry x="1260" y="220" width="120" height="80" as="geometry" />
        </mxCell>
        <mxCell id="5aaM2zscBui7bIKNS3Ns-5" value="&lt;font style=&quot;font-size: 16px;&quot;&gt;大客户会员对公开票对账流程&lt;/font&gt;" style="rounded=0;whiteSpace=wrap;html=1;" vertex="1" parent="1">
          <mxGeometry x="1240" y="40" width="160" height="60" as="geometry" />
        </mxCell>
        <mxCell id="5aaM2zscBui7bIKNS3Ns-6" value="钉钉申请流程完成且为审批通过状态" style="ellipse;whiteSpace=wrap;html=1;" vertex="1" parent="1">
          <mxGeometry x="1100" y="220" width="120" height="80" as="geometry" />
        </mxCell>
        <mxCell id="5aaM2zscBui7bIKNS3Ns-7" value="" style="endArrow=classic;html=1;rounded=0;entryX=0;entryY=0.5;entryDx=0;entryDy=0;" edge="1" parent="1" target="5aaM2zscBui7bIKNS3Ns-3">
          <mxGeometry width="50" height="50" relative="1" as="geometry">
            <mxPoint x="1220" y="260" as="sourcePoint" />
            <mxPoint x="1270" y="210" as="targetPoint" />
          </mxGeometry>
        </mxCell>
        <mxCell id="5aaM2zscBui7bIKNS3Ns-8" value="" style="endArrow=classic;html=1;rounded=0;" edge="1" parent="1">
          <mxGeometry width="50" height="50" relative="1" as="geometry">
            <mxPoint x="1320" y="300" as="sourcePoint" />
            <mxPoint x="1320" y="360" as="targetPoint" />
          </mxGeometry>
        </mxCell>
        <mxCell id="5aaM2zscBui7bIKNS3Ns-9" value="是否上传合同" style="rhombus;whiteSpace=wrap;html=1;movable=1;resizable=1;rotatable=1;deletable=1;editable=1;locked=0;connectable=1;" vertex="1" parent="1">
          <mxGeometry x="1240" y="360" width="160" height="80" as="geometry" />
        </mxCell>
        <mxCell id="5aaM2zscBui7bIKNS3Ns-10" value="" style="endArrow=none;html=1;rounded=0;" edge="1" parent="1">
          <mxGeometry width="50" height="50" relative="1" as="geometry">
            <mxPoint x="1400" y="400" as="sourcePoint" />
            <mxPoint x="1480" y="400" as="targetPoint" />
          </mxGeometry>
        </mxCell>
        <mxCell id="5aaM2zscBui7bIKNS3Ns-11" value="" style="endArrow=none;html=1;rounded=0;" edge="1" parent="1">
          <mxGeometry width="50" height="50" relative="1" as="geometry">
            <mxPoint x="1480" y="259.5" as="sourcePoint" />
            <mxPoint x="1480" y="400" as="targetPoint" />
          </mxGeometry>
        </mxCell>
        <mxCell id="5aaM2zscBui7bIKNS3Ns-12" value="" style="endArrow=classic;html=1;rounded=0;" edge="1" parent="1">
          <mxGeometry width="50" height="50" relative="1" as="geometry">
            <mxPoint x="1480" y="260" as="sourcePoint" />
            <mxPoint x="1380" y="260" as="targetPoint" />
          </mxGeometry>
        </mxCell>
        <mxCell id="5aaM2zscBui7bIKNS3Ns-13" value="否" style="text;strokeColor=none;align=center;fillColor=none;html=1;verticalAlign=middle;whiteSpace=wrap;rounded=0;movable=1;resizable=1;rotatable=1;deletable=1;editable=1;locked=0;connectable=1;" vertex="1" parent="1">
          <mxGeometry x="1400" y="370" width="60" height="30" as="geometry" />
        </mxCell>
        <mxCell id="5aaM2zscBui7bIKNS3Ns-14" value="提示语：请补充上传合同后再申请开票" style="ellipse;whiteSpace=wrap;html=1;" vertex="1" parent="1">
          <mxGeometry x="1490" y="260" width="120" height="90" as="geometry" />
        </mxCell>
        <mxCell id="5aaM2zscBui7bIKNS3Ns-15" value="" style="endArrow=classic;html=1;rounded=0;" edge="1" parent="1">
          <mxGeometry width="50" height="50" relative="1" as="geometry">
            <mxPoint x="1319.5" y="440" as="sourcePoint" />
            <mxPoint x="1320" y="480" as="targetPoint" />
          </mxGeometry>
        </mxCell>
        <mxCell id="5aaM2zscBui7bIKNS3Ns-16" value="是" style="text;html=1;align=center;verticalAlign=middle;resizable=0;points=[];autosize=1;strokeColor=none;fillColor=none;" vertex="1" parent="1">
          <mxGeometry x="1320" y="440" width="40" height="30" as="geometry" />
        </mxCell>
        <mxCell id="5aaM2zscBui7bIKNS3Ns-20" value="&lt;font face=&quot;Times New Roman&quot;&gt;&lt;span style=&quot;font-size: 15px;&quot;&gt;业务员-开票编辑界面&lt;/span&gt;&lt;/font&gt;" style="rounded=0;whiteSpace=wrap;html=1;" vertex="1" parent="1">
          <mxGeometry x="1260" y="480" width="120" height="80" as="geometry" />
        </mxCell>
        <mxCell id="5aaM2zscBui7bIKNS3Ns-22" value="" style="endArrow=classic;html=1;rounded=0;" edge="1" parent="1">
          <mxGeometry width="50" height="50" relative="1" as="geometry">
            <mxPoint x="1320" y="560" as="sourcePoint" />
            <mxPoint x="1320" y="600" as="targetPoint" />
          </mxGeometry>
        </mxCell>
        <mxCell id="5aaM2zscBui7bIKNS3Ns-23" value="业务员选择一个公司主体进行开票申请：&lt;br&gt;每个申请单可以独立开票，也可以拆成多笔开票，&lt;br&gt;多个申请也可以合并开一张票。&lt;br&gt;每个申请的金额默认实收金额，业务员可以更改，&lt;br&gt;但是不能超过实收金额。&lt;br&gt;业务员写的金额小于实收金额的部分可以用作下次申请，&lt;br&gt;也可以不用。&lt;br&gt;根据业务员的选择生成一张或者多张发票单。&lt;br&gt;&lt;br&gt;一次选择多个公司主体的，&lt;br&gt;每个主体的流程和上面的流程一样。" style="ellipse;whiteSpace=wrap;html=1;" vertex="1" parent="1">
          <mxGeometry x="1420" y="425" width="410" height="190" as="geometry" />
        </mxCell>
      </root>
    </mxGraphModel>
  </diagram>
</mxfile>
